<svg id="eLwrl6zcCOb1" xmlns="http://www.w3.org/2000/svg" xmlns:xlink="http://www.w3.org/1999/xlink" viewBox="0 0 24 24" shape-rendering="geometricPrecision" text-rendering="geometricPrecision"><g><path d="M9,22h6c5,0,7-2,7-7v-6c0-5-2-7-7-7h-6C4,2,2,4,2,9v6c0,5,2,7,7,7Z" fill="none" stroke="#292d32" stroke-width="1.5" stroke-linecap="round" stroke-linejoin="round"/><path d="M16.28,13.61c-1.13,1.13-2.75,1.48-4.18,1.03L9.51001,17.22c-.18.19-.55.31-.82.27l-1.2-.16c-.4-.05-.76-.43-.82-.82l-.16-1.2c-.04-.26.09-.63.27-.82l2.58-2.58c-.44-1.43-.1-3.04999,1.02999-4.17999c1.62-1.62,4.26-1.62,5.89,0c1.62,1.61,1.62,4.24999,0,5.87999Z" fill="none" stroke="#292d32" stroke-width="1.5" stroke-linecap="round" stroke-linejoin="round" stroke-miterlimit="10"/><path d="M10.45,16.28l-.85002-.86" fill="none" stroke="#292d32" stroke-width="1.5" stroke-linecap="round" stroke-linejoin="round" stroke-miterlimit="10"/><path d="M13.3945,10.7h.009" fill="none" stroke="#292d32" stroke-width="2" stroke-linecap="round" stroke-linejoin="round"/></g></svg>
